{
  "accessors": [
    {
      "bufferView": 2,
      "componentType": 5126,
      "count": 65532,
      "max": [
        30.05256462097168,
        19.76487159729004,
        2.7317800521850586
      ],
      "min": [
        2.0076141357421875,
        0.0,
        0.15126395225524902
      ],
      "type": "VEC3"
    },
    {
      "bufferView": 2,
      "byteOffset": 786384,
      "componentType": 5126,
      "count": 65532,
      "max": [
        0.9999218583106995,
        0.9999634623527527,
        0.4610740542411804
      ],
      "min": [
        -0.9997756481170654,
        -0.9999951124191284,
        -0.9999988675117493
      ],
      "type": "VEC3"
    },
    {
      "bufferView": 1,
      "componentType": 5126,
      "count": 65532,
      "max": [
        0.9980469942092896,
        0.9980409741401672
      ],
      "min": [
        0.0019529999699443579,
        0.04407399892807007
      ],
      "type": "VEC2"
    },
    {
      "bufferView": 0,
      "componentType": 5125,
      "count": 344925,
      "type": "SCALAR"
    },
    {
      "bufferView": 2,
      "byteOffset": 1572768,
      "componentType": 5126,
      "count": 65532,
      "max": [
        30.216053009033203,
        19.7906551361084,
        2.390742063522339
      ],
      "min": [
        14.652263641357422,
        0.1449575424194336,
        0.682729959487915
      ],
      "type": "VEC3"
    },
    {
      "bufferView": 2,
      "byteOffset": 2359152,
      "componentType": 5126,
      "count": 65532,
      "max": [
        0.9999508857727051,
        0.9999674558639526,
        0.8867527842521667
      ],
      "min": [
        -0.999954342842102,
        -0.9999947547912598,
        -0.9999998807907104
      ],
      "type": "VEC3"
    },
    {
      "bufferView": 1,
      "byteOffset": 524256,
      "componentType": 5126,
      "count": 65532,
      "max": [
        0.9980469942092896,
        0.9980409741401672
      ],
      "min": [
        0.0019529999699443579,
        0.001959000015631318
      ],
      "type": "VEC2"
    },
    {
      "bufferView": 0,
      "byteOffset": 1379700,
      "componentType": 5125,
      "count": 338697,
      "type": "SCALAR"
    },
    {
      "bufferView": 2,
      "byteOffset": 3145536,
      "componentType": 5126,
      "count": 65532,
      "max": [
        39.679351806640625,
        17.65785789489746,
        2.9217569828033447
      ],
      "min": [
        0.0,
        0.024814605712890625,
        0.0
      ],
      "type": "VEC3"
    },
    {
      "bufferView": 2,
      "byteOffset": 3931920,
      "componentType": 5126,
      "count": 65532,
      "max": [
        0.999929666519165,
        0.9998881220817566,
        0.9444222450256348
      ],
      "min": [
        -0.9999771118164063,
        -0.999613881111145,
        -0.9999997615814209
      ],
      "type": "VEC3"
    },
    {
      "bufferView": 1,
      "byteOffset": 1048512,
      "componentType": 5126,
      "count": 65532,
      "max": [
        0.9951170086860657,
        0.9970620274543762
      ],
      "min": [
        0.0019529999699443579,
        0.001959000015631318
      ],
      "type": "VEC2"
    },
    {
      "bufferView": 0,
      "byteOffset": 2734488,
      "componentType": 5125,
      "count": 354600,
      "type": "SCALAR"
    },
    {
      "bufferView": 2,
      "byteOffset": 4718304,
      "componentType": 5126,
      "count": 65532,
      "max": [
        39.642669677734375,
        19.927337646484375,
        2.7959609031677246
      ],
      "min": [
        0.4540386199951172,
        0.023540496826171875,
        0.001580953598022461
      ],
      "type": "VEC3"
    },
    {
      "bufferView": 2,
      "byteOffset": 5504688,
      "componentType": 5126,
      "count": 65532,
      "max": [
        0.9999359846115112,
        0.9999483823776245,
        0.6591507196426392
      ],
      "min": [
        -0.999859094619751,
        -0.9999973773956299,
        -0.9999997615814209
      ],
      "type": "VEC3"
    },
    {
      "bufferView": 1,
      "byteOffset": 1572768,
      "componentType": 5126,
      "count": 65532,
      "max": [
        0.9980469942092896,
        0.9970620274543762
      ],
      "min": [
        0.0019529999699443579,
        0.001959000015631318
      ],
      "type": "VEC2"
    },
    {
      "bufferView": 0,
      "byteOffset": 4152888,
      "componentType": 5125,
      "count": 343842,
      "type": "SCALAR"
    },
    {
      "bufferView": 2,
      "byteOffset": 6291072,
      "componentType": 5126,
      "count": 29066,
      "max": [
        39.682769775390625,
        18.414306640625,
        3.0287818908691406
      ],
      "min": [
        29.574230194091797,
        0.26621055603027344,
        1.2075049877166748
      ],
      "type": "VEC3"
    },
    {
      "bufferView": 2,
      "byteOffset": 6639864,
      "componentType": 5126,
      "count": 29066,
      "max": [
        0.9999596476554871,
        0.9999772310256958,
        0.6248607039451599
      ],
      "min": [
        -0.9999765157699585,
        -0.999663770198822,
        -0.9999987483024597
      ],
      "type": "VEC3"
    },
    {
      "bufferView": 1,
      "byteOffset": 2097024,
      "componentType": 5126,
      "count": 29066,
      "max": [
        0.9980469942092896,
        0.9941229820251465
      ],
      "min": [
        0.0019529999699443579,
        0.001959000015631318
      ],
      "type": "VEC2"
    },
    {
      "bufferView": 0,
      "byteOffset": 5528256,
      "componentType": 5125,
      "count": 149418,
      "type": "SCALAR"
    }
  ],
  "asset": {
    "extras": {
      "author": "Two4design (https://sketchfab.com/two4design)",
      "license": "CC-BY-4.0 (http://creativecommons.org/licenses/by/4.0/)",
      "source": "https://sketchfab.com/3d-models/new-life-fellowship-terracotta-panel-2-eadf0d0512564a9b9b51d852308bbd09",
      "title": "New Life Fellowship Terracotta Panel #2"
    },
    "generator": "Sketchfab-12.65.0",
    "version": "2.0"
  },
  "bufferViews": [
    {
      "buffer": 0,
      "byteLength": 6125928,
      "name": "floatBufferViews",
      "target": 34963
    },
    {
      "buffer": 0,
      "byteLength": 2329552,
      "byteOffset": 6125928,
      "byteStride": 8,
      "name": "floatBufferViews",
      "target": 34962
    },
    {
      "buffer": 0,
      "byteLength": 6988656,
      "byteOffset": 8455480,
      "byteStride": 12,
      "name": "floatBufferViews",
      "target": 34962
    }
  ],
  "buffers": [
    {
      "byteLength": 15444136,
      "uri": "scene.bin"
    }
  ],
  "extensionsUsed": [
    "KHR_materials_unlit"
  ],
  "images": [
    {
      "uri": "textures/Material_0_baseColor.jpeg"
    }
  ],
  "materials": [
    {
      "doubleSided": true,
      "extensions": {
        "KHR_materials_unlit": {}
      },
      "name": "Material_0",
      "pbrMetallicRoughness": {
        "baseColorTexture": {
          "index": 0
        },
        "metallicFactor": 0.0
      }
    }
  ],
  "meshes": [
    {
      "name": "Object_0",
      "primitives": [
        {
          "attributes": {
            "NORMAL": 1,
            "POSITION": 0,
            "TEXCOORD_0": 2
          },
          "indices": 3,
          "material": 0,
          "mode": 4
        }
      ]
    },
    {
      "name": "Object_1",
      "primitives": [
        {
          "attributes": {
            "NORMAL": 5,
            "POSITION": 4,
            "TEXCOORD_0": 6
          },
          "indices": 7,
          "material": 0,
          "mode": 4
        }
      ]
    },
    {
      "name": "Object_2",
      "primitives": [
        {
          "attributes": {
            "NORMAL": 9,
            "POSITION": 8,
            "TEXCOORD_0": 10
          },
          "indices": 11,
          "material": 0,
          "mode": 4
        }
      ]
    },
    {
      "name": "Object_3",
      "primitives": [
        {
          "attributes": {
            "NORMAL": 13,
            "POSITION": 12,
            "TEXCOORD_0": 14
          },
          "indices": 15,
          "material": 0,
          "mode": 4
        }
      ]
    },
    {
      "name": "Object_4",
      "primitives": [
        {
          "attributes": {
            "NORMAL": 17,
            "POSITION": 16,
            "TEXCOORD_0": 18
          },
          "indices": 19,
          "material": 0,
          "mode": 4
        }
      ]
    }
  ],
  "nodes": [
    {
      "children": [
        1
      ],
      "matrix": [
        1.0,
        0.0,
        0.0,
        0.0,
        0.0,
        -1.0,
        -4.440892098500626e-16,
        0.0,
        0.0,
        4.440892098500626e-16,
        -1.0,
        0.0,
        0.0,
        -5.083181381225587,
        5.293081283569335,
        1.0
      ],
      "name": "Sketchfab_model"
    },
    {
      "children": [
        2,
        3,
        4,
        5,
        6
      ],
      "matrix": [
        1.0,
        0.0,
        0.0,
        0.0,
        0.0,
        1.0,
        0.0,
        0.0,
        0.0,
        0.0,
        1.0,
        0.0,
        -19.003366470336914,
        -15.151811599731445,
        -1.4094359874725342,
        1.0
      ],
      "name": "Tile1.obj.cleaner.gles"
    },
    {
      "mesh": 0,
      "name": "Object_2"
    },
    {
      "mesh": 1,
      "name": "Object_3"
    },
    {
      "mesh": 2,
      "name": "Object_4"
    },
    {
      "mesh": 3,
      "name": "Object_5"
    },
    {
      "mesh": 4,
      "name": "Object_6"
    }
  ],
  "samplers": [
    {
      "magFilter": 9729,
      "minFilter": 9987,
      "wrapS": 10497,
      "wrapT": 10497
    }
  ],
  "scene": 0,
  "scenes": [
    {
      "name": "Sketchfab_Scene",
      "nodes": [
        0
      ]
    }
  ],
  "textures": [
    {
      "sampler": 0,
      "source": 0
    }
  ]
}
